<?xml version="1.0" encoding="UTF-8" standalone="no"?>
<svg width="309px" height="84px" viewBox="0 0 309 84" version="1.1" xmlns="http://www.w3.org/2000/svg" xmlns:xlink="http://www.w3.org/1999/xlink">
    <!-- Generator: Sketch 39 (31667) - http://www.bohemiancoding.com/sketch -->
    <title>airship-logo</title>
    <desc>Created with Sketch.</desc>
    <defs></defs>
    <g id="Page-1" stroke="none" stroke-width="1" fill="none" fill-rule="evenodd">
        <g id="airship-logo">
            <path d="M300,10.7416992 C300,9.88687724 300.197833,9.09342814 300.593506,8.36132812 C300.989178,7.62922811 301.537187,7.0526551 302.237549,6.6315918 C302.93791,6.21052849 303.694332,6 304.506836,6 C305.31934,6 306.074704,6.21052849 306.772949,6.6315918 C307.471195,7.0526551 308.018146,7.62922811 308.413818,8.36132812 C308.809491,9.09342814 309.007324,9.88687724 309.007324,10.7416992 C309.007324,11.5753622 308.816896,12.3561162 308.436035,13.0839844 C308.055174,13.8118526 307.514571,14.3968891 306.814209,14.8391113 C306.113847,15.2813336 305.344731,15.5024414 304.506836,15.5024414 C303.673173,15.5024414 302.906172,15.2834495 302.205811,14.845459 C301.505449,14.4074685 300.96273,13.8245479 300.577637,13.0966797 C300.192544,12.3688115 300,11.5838258 300,10.7416992 L300,10.7416992 Z M300.72998,10.7416992 C300.72998,11.4695674 300.89925,12.1434702 301.237793,12.7634277 C301.576336,13.3833853 302.036537,13.8689761 302.618408,14.2202148 C303.20028,14.5714536 303.829749,14.7470703 304.506836,14.7470703 C305.188154,14.7470703 305.820798,14.5682798 306.404785,14.2106934 C306.988772,13.8531069 307.446857,13.3675161 307.779053,12.7539062 C308.111248,12.1402964 308.277344,11.4695674 308.277344,10.7416992 C308.277344,10.0180628 308.111248,9.35050761 307.779053,8.73901367 C307.446857,8.12751973 306.988772,7.64510268 306.404785,7.29174805 C305.820798,6.93839342 305.188154,6.76171875 304.506836,6.76171875 C303.829749,6.76171875 303.199222,6.93627755 302.615234,7.28540039 C302.031247,7.63452323 301.571047,8.11799821 301.234619,8.73583984 C300.898192,9.35368147 300.72998,10.0222946 300.72998,10.7416992 L300.72998,10.7416992 Z M303.57373,11.2177734 L303.57373,13.3632812 L302.678711,13.3632812 L302.678711,7.97412109 L304.430664,7.97412109 C305.078128,7.97412109 305.580646,8.1127102 305.938232,8.38989258 C306.295819,8.66707495 306.474609,9.07014709 306.474609,9.59912109 C306.474609,10.1196315 306.203779,10.517414 305.662109,10.7924805 C306.178388,11.0040701 306.438639,11.4357064 306.442871,12.0874023 L306.442871,12.4746094 C306.442871,12.8385435 306.478841,13.1009107 306.550781,13.2617188 L306.550781,13.3632812 L305.630371,13.3632812 C305.571126,13.2109367 305.541504,12.9390482 305.541504,12.5476074 C305.541504,12.1561667 305.535156,11.9244795 305.522461,11.8525391 C305.454752,11.446287 305.177574,11.2347006 304.690918,11.2177734 L303.57373,11.2177734 Z M303.57373,10.4052734 L304.563965,10.4052734 C304.868654,10.3968099 305.114094,10.3227546 305.300293,10.1831055 C305.486492,10.0434563 305.57959,9.85937614 305.57959,9.63085938 C305.57959,9.32193856 305.497071,9.10294661 305.332031,8.97387695 C305.166991,8.8448073 304.872886,8.78027344 304.449707,8.78027344 L303.57373,8.78027344 L303.57373,10.4052734 Z" id="®-copy" fill="#FF9F00"></path>
            <path d="M161.306803,15.0590062 C158.17619,6.82298137 149.587075,0.121118012 147.620408,0.121118012 L147.459864,0.121118012 L147.29932,0.121118012 C145.332653,0.121118012 136.743537,6.82298137 133.612925,15.0590062 C132.770068,17.2795031 136.904082,48.3664596 137.867347,52.9689441 C137.987755,53.6149068 138.429252,54.0186335 138.870748,54.0186335 L143.727211,54.0186335 C143.566667,52.484472 143.446259,50.9099379 143.32585,49.3757764 C143.004762,44.8136646 142.482993,37.0621118 142.763946,36.2546584 C143.606803,34.1956522 145.77415,31.4503106 147.379592,31.4503106 L147.459864,31.4503106 C149.065306,31.4503106 151.232653,34.1956522 152.07551,36.2142857 C152.436735,37.1024845 151.754422,46.4285714 150.991837,53.9782609 L155.968707,53.9782609 C156.45034,53.9782609 156.851701,53.5341615 156.972109,52.9285714 C158.015646,48.3664596 162.14966,17.3198758 161.306803,15.0590062 L161.306803,15.0590062 Z M152.356463,23.0931677 C152.316327,23.5776398 152.155782,23.6180124 151.914966,23.3354037 C150.34966,21.2763975 148.142177,19.7826087 147.5,19.7826087 L147.5,19.7826087 L147.459864,19.7826087 L147.419728,19.7826087 L147.419728,19.7826087 C146.777551,19.7826087 144.570068,21.3167702 143.004762,23.3354037 C142.763946,23.6583851 142.603401,23.6180124 142.563265,23.0931677 C142.482993,21.8012422 142.442857,18.4503106 142.523129,18.2484472 C143.646939,14.8975155 146.737415,12.1925466 147.419728,12.1925466 L147.459864,12.1925466 L147.5,12.1925466 C148.222449,12.1925466 151.272789,14.8975155 152.396599,18.2484472 C152.476871,18.4503106 152.476871,21.8012422 152.356463,23.0931677 L152.356463,23.0931677 Z" id="Shape" fill="#FF9F00"></path>
            <path d="M129.238095,62.4161491 C127.512245,60.8012422 123.659184,45.6614907 123.619048,41.4627329 C123.619048,40.2111801 124.341497,39.121118 125.344898,37.9503106 C126.348299,36.8198758 130.723129,33.3074534 132.930612,32.0559006 C133.693197,39.5248447 135.659864,50.7484472 136.061224,53.2515528 C135.097959,55.7950311 131.285034,61.7298137 129.238095,62.4161491 L129.238095,62.4161491 Z" id="Shape" fill="#FCBD2A"></path>
            <path d="M165.761905,62.4161491 C167.487755,60.8012422 171.340816,45.6614907 171.380952,41.4627329 C171.380952,40.2111801 170.658503,39.121118 169.655102,37.9503106 C168.651701,36.8198758 164.276871,33.3074534 162.069388,32.0559006 C161.306803,39.5248447 159.340136,50.7484472 158.938776,53.2515528 C159.902041,55.7950311 163.67483,61.7298137 165.761905,62.4161491 L165.761905,62.4161491 Z" id="Shape" fill="#FF9F00"></path>
            <path d="M292.993197,6.70186335 L270.035374,6.70186335 C269.754422,10.1335404 264.17551,17.1987578 260.563265,19.2981366 L280.591156,19.2981366 C284.444218,19.2981366 286.04966,18.8540373 289.019728,16.0279503 C291.94966,13.2018634 293.87619,10.1335404 294.719048,8.31677019 C295.160544,7.38819876 294.839456,6.70186335 292.993197,6.70186335 L292.993197,6.70186335 Z" id="Shape" fill="#FCBD2A"></path>
            <path d="M265.660544,6.70186335 C264.295918,6.70186335 187.917007,6.58074534 182.659184,6.70186335 C179.769388,6.7826087 177.882993,7.7515528 176.197279,9.24534161 C174.391156,10.8602484 162.872109,25.2329193 162.872109,25.3540373 C162.791837,26.2826087 162.671429,27.8167702 162.631293,28.6242236 C162.591156,29.431677 162.751701,29.7142857 163.514286,30.3198758 C163.87551,30.6024845 165.561224,31.6925466 166.163265,32.1770186 C169.695238,28.2608696 174.029932,24.1832298 176.79932,21.8416149 C179.368027,19.7018634 181.334694,19.2981366 186.753061,19.2981366 L253.258503,19.2981366 C257.111565,19.2981366 258.717007,18.8540373 261.687075,16.0279503 C264.617007,13.2018634 266.543537,10.1335404 267.386395,8.31677019 C267.827891,7.38819876 267.506803,6.70186335 265.660544,6.70186335 L265.660544,6.70186335 Z" id="Shape" fill="#FF9F00"></path>
            <path d="M260.72381,21.6397516 L237.765986,21.6397516 C237.485034,25.0714286 232.548299,31.4099379 228.895918,33.5093168 L248.92381,33.5093168 C252.776871,33.5093168 254.382313,33.0652174 257.352381,30.2391304 C260.282313,27.4130435 261.606803,25.0714286 262.44966,23.2950311 C262.931293,22.326087 262.610204,21.6397516 260.72381,21.6397516 L260.72381,21.6397516 Z" id="Shape" fill="#FCBD2A"></path>
            <path d="M233.391156,21.6397516 C232.026531,21.6397516 189.442177,21.4782609 184.385034,21.4782609 C181.495238,21.4782609 179.287755,21.8012422 176.719048,24.0621118 C174.912925,25.636646 167.407483,33.0652174 167.487755,33.1459627 C168.370748,33.9937888 170.89932,35.7701863 172.62517,38.0714286 C173.74898,37.1024845 174.752381,36.3354037 176.277551,35.1645963 C178.926531,33.1055901 181.896599,33.3478261 187.27483,33.3478261 C188.278231,33.3478261 219.383673,33.5093168 221.631293,33.5093168 C225.484354,33.5093168 227.089796,33.0652174 230.059864,30.2391304 C232.989796,27.4130435 234.314286,25.0714286 235.157143,23.2950311 C235.598639,22.326087 235.277551,21.6397516 233.391156,21.6397516 L233.391156,21.6397516 Z" id="Shape" fill="#FF9F00"></path>
            <path d="M229.497959,35.6086957 L206.540136,35.6086957 C206.259184,39.0403727 201.322449,45.378882 197.670068,47.4782609 L217.697959,47.4782609 C221.55102,47.4782609 223.156463,47.0341615 226.126531,44.2080745 C229.056463,41.3819876 230.380952,39.0403727 231.22381,37.2639752 C231.705442,36.2950311 231.384354,35.6086957 229.497959,35.6086957 L229.497959,35.6086957 Z" id="Shape" fill="#FCBD2A"></path>
            <path d="M202.165306,35.6086957 C200.80068,35.6086957 186.793197,35.447205 181.736054,35.447205 C178.846259,35.447205 177.401361,36.052795 175.67551,37.5869565 C175.193878,38.0310559 174.310884,38.5559006 173.307483,39.6863354 C173.829252,41.5434783 173.227211,44.4099379 172.745578,47.3571429 C173.74898,47.3571429 188.157823,47.5186335 190.405442,47.5186335 C194.258503,47.5186335 195.863946,47.0745342 198.834014,44.2484472 C201.763946,41.4223602 203.088435,39.0807453 203.931293,37.3043478 C204.372789,36.2950311 204.051701,35.6086957 202.165306,35.6086957 L202.165306,35.6086957 Z" id="Shape" fill="#FF9F00"></path>
            <path d="M150.590476,36.9813665 C149.908163,34.8819876 147.981633,33.1459627 147.540136,33.1459627 L147.5,33.1459627 L147.459864,33.1459627 C147.018367,33.1459627 145.091837,34.8819876 144.409524,36.9813665 C144.24898,37.5062112 145.332653,59.2267081 146.336054,62.8198758 C146.536735,63.5062112 147.178912,64.7981366 147.5,64.7981366 C147.70068,64.7981366 148.463265,63.5869565 148.663946,62.8198758 C149.506803,59.9130435 150.75102,37.5062112 150.590476,36.9813665 L150.590476,36.9813665 Z" id="Shape" fill="#FF9F00"></path>
            <path d="M147.5,19.7826087 C147.5,19.7826087 147.459864,19.7826087 147.5,19.7826087 L147.5,19.7826087 C146.857823,19.7826087 144.65034,21.3167702 143.044898,23.3354037 C142.804082,23.6583851 142.643537,23.6180124 142.603401,23.0931677 C142.523129,21.8012422 142.482993,18.4503106 142.563265,18.2484472 C143.687075,14.8975155 146.777551,12.1925466 147.459864,12.1925466 L147.5,12.1925466 L147.5,0.161490683 L147.339456,0.161490683 C145.372789,0.161490683 136.783673,6.86335404 133.653061,15.0993789 C132.810204,17.3198758 136.944218,48.4068323 137.907483,53.0093168 C138.027891,53.6552795 138.469388,54.0590062 138.910884,54.0590062 L143.767347,54.0590062 C143.606803,52.5248447 143.486395,50.9503106 143.365986,49.4161491 C143.044898,44.8540373 142.523129,37.1024845 142.804082,36.2950311 C143.646939,34.2360248 145.814286,31.4906832 147.419728,31.4906832 L147.459864,31.4906832 L147.459864,19.7826087 L147.5,19.7826087 Z" id="Shape" fill="#FCBD2A"></path>
            <path d="M147.459864,33.1863354 C147.018367,33.1863354 145.091837,34.9223602 144.409524,37.0217391 C144.24898,37.5465839 145.332653,59.2670807 146.336054,62.8602484 C146.536735,63.5465839 147.178912,64.8385093 147.5,64.8385093 L147.5,64.8385093 L147.459864,33.1863354 L147.459864,33.1863354 L147.459864,33.1863354 Z" id="Shape" fill="#FCBD2A"></path>
            <path d="M2.00680272,6.70186335 L24.9646259,6.70186335 C25.2455782,10.1335404 30.8244898,17.1987578 34.4367347,19.2981366 L14.4088435,19.2981366 C10.5557823,19.2981366 8.95034014,18.8540373 5.98027211,16.0279503 C3.05034014,13.2018634 1.12380952,10.1335404 0.280952381,8.31677019 C-0.200680272,7.38819876 0.120408163,6.70186335 2.00680272,6.70186335 L2.00680272,6.70186335 Z" id="Shape" fill="#FCBD2A"></path>
            <path d="M34.2360544,21.6397516 L57.1938776,21.6397516 C57.4748299,25.0714286 62.4115646,31.4099379 66.0639456,33.5093168 L46.0360544,33.5093168 C42.1829932,33.5093168 40.577551,33.0652174 37.607483,30.2391304 C34.677551,27.4130435 33.3530612,25.0714286 32.5102041,23.2950311 C32.0687075,22.326087 32.3496599,21.6397516 34.2360544,21.6397516 L34.2360544,21.6397516 Z" id="Shape" fill="#FCBD2A"></path>
            <path d="M61.5687075,21.6397516 C62.9333333,21.6397516 105.517687,21.4782609 110.57483,21.4782609 C113.464626,21.4782609 115.672109,21.8012422 118.240816,24.0621118 C120.046939,25.636646 127.552381,33.0652174 127.472109,33.1459627 C126.589116,33.9937888 124.060544,35.7701863 122.334694,38.0714286 C121.210884,37.1024845 120.207483,36.3354037 118.682313,35.1645963 C116.033333,33.1055901 113.063265,33.3478261 107.685034,33.3478261 C106.681633,33.3478261 75.5761905,33.5093168 73.3285714,33.5093168 C69.4755102,33.5093168 67.870068,33.0652174 64.9,30.2391304 C61.970068,27.4130435 60.6455782,25.0714286 59.8027211,23.2950311 C59.4013605,22.326087 59.6823129,21.6397516 61.5687075,21.6397516 L61.5687075,21.6397516 Z" id="Shape" fill="#FF9F00"></path>
            <path d="M65.4619048,35.6086957 L88.4197279,35.6086957 C88.7006803,39.0403727 93.637415,45.378882 97.2897959,47.4782609 L77.2619048,47.4782609 C73.4088435,47.4782609 71.8034014,47.0341615 68.8333333,44.2080745 C65.9034014,41.3819876 64.5789116,39.0403727 63.7360544,37.2639752 C63.2945578,36.2950311 63.6156463,35.6086957 65.4619048,35.6086957 L65.4619048,35.6086957 Z" id="Shape" fill="#FCBD2A"></path>
            <path d="M92.8346939,35.6086957 C94.1993197,35.6086957 108.206803,35.447205 113.263946,35.447205 C116.153741,35.447205 117.598639,36.052795 119.32449,37.5869565 C119.806122,38.0310559 120.689116,38.5559006 121.692517,39.6863354 C121.170748,41.5434783 121.772789,44.4099379 122.254422,47.3571429 C121.25102,47.3571429 106.842177,47.5186335 104.594558,47.5186335 C100.741497,47.5186335 99.1360544,47.0745342 96.1659864,44.2484472 C93.2360544,41.4223602 91.9115646,39.0807453 91.0687075,37.3043478 C90.6272109,36.2950311 90.9482993,35.6086957 92.8346939,35.6086957 L92.8346939,35.6086957 Z" id="Shape" fill="#FF9F00"></path>
            <path d="M29.3394558,6.70186335 C30.7040816,6.70186335 107.082993,6.58074534 112.340816,6.70186335 C115.230612,6.7826087 117.117007,7.7515528 118.802721,9.24534161 C120.608844,10.8602484 132.127891,25.2329193 132.127891,25.3540373 C132.208163,26.2826087 132.328571,27.8167702 132.368707,28.6242236 C132.408844,29.431677 132.248299,29.7142857 131.485714,30.3198758 C131.12449,30.6024845 129.438776,31.6925466 128.836735,32.1770186 C125.304762,28.2608696 120.970068,24.1832298 118.20068,21.8416149 C115.631973,19.7018634 113.665306,19.2981366 108.246939,19.2981366 L41.7414966,19.2981366 C37.8884354,19.2981366 36.2829932,18.8540373 33.3129252,16.0279503 C30.3829932,13.2018634 28.4564626,10.1335404 27.6136054,8.31677019 C27.1721088,7.38819876 27.4530612,6.70186335 29.3394558,6.70186335 L29.3394558,6.70186335 Z" id="Shape" fill="#FF9F00"></path>
            <path d="M105.334385,81.251 L104.564385,83 L103.178385,83 L106.566385,75.311 L107.952385,75.311 L111.340385,83 L109.954385,83 L109.184385,81.251 L105.334385,81.251 Z M108.656385,80.052 L107.259385,76.884 L105.862385,80.052 L108.656385,80.052 Z M114.184308,75.311 L115.482308,75.311 L115.482308,83 L114.184308,83 L114.184308,75.311 Z M125.531231,77.808 C125.531231,79.076673 124.97757,79.8759983 123.870231,80.206 L125.883231,83 L124.233231,83 L122.396231,80.415 L120.691231,80.415 L120.691231,83 L119.393231,83 L119.393231,75.311 L122.253231,75.311 C123.42657,75.311 124.266229,75.508998 124.772231,75.905 C125.278234,76.301002 125.531231,76.935329 125.531231,77.808 L125.531231,77.808 Z M123.804231,78.897 C124.068232,78.6696655 124.200231,78.3048358 124.200231,77.8025 C124.200231,77.3001642 124.064566,76.9555009 123.793231,76.7685 C123.521896,76.5814991 123.037901,76.488 122.341231,76.488 L120.691231,76.488 L120.691231,79.238 L122.308231,79.238 C123.041568,79.238 123.54023,79.1243345 123.804231,78.897 L123.804231,78.897 Z M130.575154,76.554 C130.333153,76.7080008 130.212154,76.9408318 130.212154,77.2525 C130.212154,77.5641682 130.333153,77.8024992 130.575154,77.9675 C130.817155,78.1325008 131.332317,78.3103324 132.120654,78.501 C132.908991,78.6916676 133.502985,78.9593316 133.902654,79.304 C134.302323,79.6486684 134.502154,80.1564966 134.502154,80.8275 C134.502154,81.4985034 134.249157,82.0429979 133.743154,82.461 C133.237152,82.8790021 132.573492,83.088 131.752154,83.088 C130.549481,83.088 129.482492,82.6736708 128.551154,81.845 L129.365154,80.866 C130.142491,81.54067 130.94915,81.878 131.785154,81.878 C132.203156,81.878 132.534986,81.7881676 132.780654,81.6085 C133.026322,81.4288324 133.149154,81.1905015 133.149154,80.8935 C133.149154,80.5964985 133.033655,80.3655008 132.802654,80.2005 C132.571653,80.0354992 132.173824,79.8851673 131.609154,79.7495 C131.044485,79.6138327 130.615489,79.4891672 130.322154,79.3755 C130.028819,79.2618328 129.768489,79.1133342 129.541154,78.93 C129.086485,78.5853316 128.859154,78.0573369 128.859154,77.346 C128.859154,76.6346631 129.117652,76.0865019 129.634654,75.7015 C130.151657,75.3164981 130.791484,75.124 131.554154,75.124 C132.04549,75.124 132.533152,75.2046659 133.017154,75.366 C133.501157,75.5273341 133.919152,75.7546652 134.271154,76.048 L133.578154,77.027 C133.35082,76.8216656 133.042823,76.6530007 132.654154,76.521 C132.265486,76.3889993 131.882323,76.323 131.504654,76.323 C131.126986,76.323 130.817155,76.3999992 130.575154,76.554 L130.575154,76.554 Z M137.885077,83 L137.885077,75.311 L139.183077,75.311 L139.183077,78.644 L143.000077,78.644 L143.000077,75.311 L144.298077,75.311 L144.298077,83 L143.000077,83 L143.000077,79.854 L139.183077,79.854 L139.183077,83 L137.885077,83 Z M148.209,75.311 L149.507,75.311 L149.507,83 L148.209,83 L148.209,75.311 Z M158.609923,75.982 C159.145259,76.4293356 159.412923,77.118662 159.412923,78.05 C159.412923,78.981338 159.139759,79.6633312 158.593423,80.096 C158.047087,80.5286688 157.209262,80.745 156.079923,80.745 L154.715923,80.745 L154.715923,83 L153.417923,83 L153.417923,75.311 L156.057923,75.311 C157.223929,75.311 158.074587,75.5346644 158.609923,75.982 L158.609923,75.982 Z M157.691423,79.1555 C157.951758,78.8804986 158.081923,78.4771693 158.081923,77.9455 C158.081923,77.4138307 157.916925,77.0380011 157.586923,76.818 C157.256921,76.5979989 156.739926,76.488 156.035923,76.488 L154.715923,76.488 L154.715923,79.568 L156.222923,79.568 C156.941593,79.568 157.431088,79.4305014 157.691423,79.1555 L157.691423,79.1555 Z M166.227846,81.823 C166.675181,81.823 167.060178,81.7478341 167.382846,81.5975 C167.705514,81.4471659 168.042844,81.2070016 168.394846,80.877 L169.230846,81.735 C168.416842,82.6370045 167.428685,83.088 166.266346,83.088 C165.104007,83.088 164.139683,82.7140037 163.373346,81.966 C162.607009,81.2179963 162.223846,80.2720057 162.223846,79.128 C162.223846,77.9839943 162.614342,77.0306705 163.395346,76.268 C164.17635,75.5053295 165.162673,75.124 166.354346,75.124 C167.546019,75.124 168.541509,75.5639956 169.340846,76.444 L168.515846,77.346 C168.149177,76.9939982 167.802681,76.748334 167.476346,76.609 C167.150011,76.469666 166.766848,76.4 166.326846,76.4 C165.549509,76.4 164.896849,76.6511642 164.368846,77.1535 C163.840843,77.6558358 163.576846,78.2974961 163.576846,79.0785 C163.576846,79.8595039 163.83901,80.512164 164.363346,81.0365 C164.887682,81.560836 165.509176,81.823 166.227846,81.823 L166.227846,81.823 Z M173.889769,83 L172.591769,83 L172.591769,75.311 L174.615769,75.311 L176.936769,80.14 L179.257769,75.311 L181.270769,75.311 L181.270769,83 L179.972769,83 L179.972769,76.994 L177.288769,82.329 L176.562769,82.329 L173.889769,76.994 L173.889769,83 Z M186.578692,76.554 C186.336691,76.7080008 186.215692,76.9408318 186.215692,77.2525 C186.215692,77.5641682 186.336691,77.8024992 186.578692,77.9675 C186.820693,78.1325008 187.335854,78.3103324 188.124192,78.501 C188.912529,78.6916676 189.506523,78.9593316 189.906192,79.304 C190.30586,79.6486684 190.505692,80.1564966 190.505692,80.8275 C190.505692,81.4985034 190.252694,82.0429979 189.746692,82.461 C189.240689,82.8790021 188.577029,83.088 187.755692,83.088 C186.553019,83.088 185.48603,82.6736708 184.554692,81.845 L185.368692,80.866 C186.146029,81.54067 186.952688,81.878 187.788692,81.878 C188.206694,81.878 188.538524,81.7881676 188.784192,81.6085 C189.02986,81.4288324 189.152692,81.1905015 189.152692,80.8935 C189.152692,80.5964985 189.037193,80.3655008 188.806192,80.2005 C188.575191,80.0354992 188.177361,79.8851673 187.612692,79.7495 C187.048022,79.6138327 186.619027,79.4891672 186.325692,79.3755 C186.032357,79.2618328 185.772026,79.1133342 185.544692,78.93 C185.090023,78.5853316 184.862692,78.0573369 184.862692,77.346 C184.862692,76.6346631 185.121189,76.0865019 185.638192,75.7015 C186.155194,75.3164981 186.795021,75.124 187.557692,75.124 C188.049028,75.124 188.536689,75.2046659 189.020692,75.366 C189.504694,75.5273341 189.92269,75.7546652 190.274692,76.048 L189.581692,77.027 C189.354357,76.8216656 189.04636,76.6530007 188.657692,76.521 C188.269023,76.3889993 187.88586,76.323 187.508192,76.323 C187.130523,76.323 186.820693,76.3999992 186.578692,76.554 L186.578692,76.554 Z" id="AIRSHIPCMS" fill="#FFBF00"></path>
        </g>
    </g>
</svg>