<?xml version="1.0" encoding="UTF-8" standalone="no"?>
<svg width="44px" height="58px" viewBox="0 0 44 58" version="1.1" xmlns="http://www.w3.org/2000/svg" xmlns:xlink="http://www.w3.org/1999/xlink">
    <!-- Generator: Sketch 39 (31667) - http://www.bohemiancoding.com/sketch -->
    <title>airship-graphic</title>
    <desc>Created with Sketch.</desc>
    <defs></defs>
    <g id="Page-1" stroke="none" stroke-width="1" fill="none" fill-rule="evenodd">
        <g id="airship-graphic">
            <path d="M34.3979453,13.4372671 C31.5867833,6.08819876 23.874108,0.108074534 22.1081216,0.108074534 L21.9639595,0.108074534 L21.8197973,0.108074534 C20.0538109,0.108074534 12.3411356,6.08819876 9.52997362,13.4372671 C8.77312231,15.4186335 12.4852978,43.157764 13.3502707,47.2645963 C13.4583923,47.8409938 13.8548383,48.2012422 14.2512842,48.2012422 L18.6121894,48.2012422 C18.4680272,46.8322981 18.3599056,45.4273292 18.251784,44.0583851 C17.9634597,39.9875776 17.4949327,33.0708075 17.7472164,32.3503106 C18.5040677,30.5130435 20.4502568,28.063354 21.8918784,28.063354 L21.9639595,28.063354 C23.405581,28.063354 25.3517701,30.5130435 26.1086214,32.3142857 C26.4329863,33.1068323 25.8202971,41.4285714 25.1355269,48.1652174 L29.6045537,48.1652174 C30.0370401,48.1652174 30.3974455,47.7689441 30.5055671,47.2285714 C31.4426211,43.157764 35.1547966,15.4546584 34.3979453,13.4372671 L34.3979453,13.4372671 Z M26.3609052,20.6062112 C26.3248646,21.0385093 26.1807025,21.0745342 25.9644593,20.8223602 C24.5588782,18.9850932 22.5766486,17.6521739 22,17.6521739 L22,17.6521739 L21.9639595,17.6521739 L21.9279189,17.6521739 L21.9279189,17.6521739 C21.3512703,17.6521739 19.3690407,19.021118 17.9634597,20.8223602 C17.7472164,21.110559 17.6030543,21.0745342 17.5670137,20.6062112 C17.4949327,19.4534161 17.4588921,16.463354 17.5309732,16.2832298 C18.5401083,13.2931677 21.3152298,10.8795031 21.9279189,10.8795031 L21.9639595,10.8795031 L22,10.8795031 C22.6487297,10.8795031 25.3878106,13.2931677 26.3969457,16.2832298 C26.4690268,16.463354 26.4690268,19.4534161 26.3609052,20.6062112 L26.3609052,20.6062112 Z" id="Shape" fill="#BFC6D3"></path>
            <path d="M5.60155491,55.6944099 C4.05181175,54.2534161 0.591920033,40.7440994 0.555879495,36.9975155 C0.555879495,35.8807453 1.20460919,34.9080745 2.10562266,33.863354 C3.00663612,32.8546584 6.93505484,29.7204969 8.91728446,28.6037267 C9.6020547,35.268323 11.3680411,45.2832298 11.7284465,47.5167702 C10.8634736,49.7863354 7.43962238,55.0819876 5.60155491,55.6944099 L5.60155491,55.6944099 Z" id="Shape" fill="#DFE2E8"></path>
            <path d="M38.3984451,55.6944099 C39.9481883,54.2534161 43.40808,40.7440994 43.4441205,36.9975155 C43.4441205,35.8807453 42.7953908,34.9080745 41.8943773,33.863354 C40.9933639,32.8546584 37.0649452,29.7204969 35.0827155,28.6037267 C34.3979453,35.268323 32.6319589,45.2832298 32.2715535,47.5167702 C33.1365264,49.7863354 36.5243371,55.0819876 38.3984451,55.6944099 L38.3984451,55.6944099 Z" id="Shape" fill="#BFC6D3"></path>
            <path d="M24.7751215,32.9987578 C24.1624323,31.1254658 22.4324865,29.5763975 22.0360405,29.5763975 L22,29.5763975 L21.9639595,29.5763975 C21.5675135,29.5763975 19.8375677,31.1254658 19.2248785,32.9987578 C19.0807164,33.4670807 20.0538109,52.8484472 20.9548244,56.0546584 C21.1350271,56.6670807 21.7116757,57.8198758 22,57.8198758 C22.1802027,57.8198758 22.8649729,56.7391304 23.0451756,56.0546584 C23.8020269,53.4608696 24.9192836,33.4670807 24.7751215,32.9987578 L24.7751215,32.9987578 Z" id="Shape" fill="#BFC6D3"></path>
            <path d="M22,17.6521739 C22,17.6521739 21.9639595,17.6521739 22,17.6521739 L22,17.6521739 C21.4233514,17.6521739 19.4411218,19.021118 17.9995002,20.8223602 C17.783257,21.110559 17.6390948,21.0745342 17.6030543,20.6062112 C17.5309732,19.4534161 17.4949327,16.463354 17.5670137,16.2832298 C18.5761488,13.2931677 21.3512703,10.8795031 21.9639595,10.8795031 L22,10.8795031 L22,0.144099379 L21.8558378,0.144099379 C20.0898515,0.144099379 12.3771762,6.1242236 9.56601416,13.4732919 C8.80916285,15.4546584 12.5213383,43.1937888 13.3863113,47.3006211 C13.4944329,47.8770186 13.8908788,48.2372671 14.2873247,48.2372671 L18.6482299,48.2372671 C18.5040677,46.868323 18.3959461,45.463354 18.2878245,44.0944099 C17.9995002,40.0236025 17.5309732,33.1068323 17.783257,32.3863354 C18.5401083,30.5490683 20.4862974,28.0993789 21.9279189,28.0993789 L21.9639595,28.0993789 L21.9639595,17.6521739 L22,17.6521739 Z" id="Shape" fill="#DFE2E8"></path>
            <path d="M21.9639595,29.6124224 C21.5675135,29.6124224 19.8375677,31.1614907 19.2248785,33.0347826 C19.0807164,33.5031056 20.0538109,52.884472 20.9548244,56.0906832 C21.1350271,56.7031056 21.7116757,57.8559006 22,57.8559006 L22,57.8559006 L21.9639595,29.6124224 L21.9639595,29.6124224 L21.9639595,29.6124224 Z" id="Shape" fill="#DFE2E7"></path>
        </g>
    </g>
</svg>