<?xml version="1.0" encoding="UTF-8" standalone="no"?>
<svg width="93px" height="40px" viewBox="0 0 93 40" version="1.1" xmlns="http://www.w3.org/2000/svg" xmlns:xlink="http://www.w3.org/1999/xlink">
    <!-- Generator: Sketch 39 (31667) - http://www.bohemiancoding.com/sketch -->
    <title>spaceship-graphic</title>
    <desc>Created with Sketch.</desc>
    <defs></defs>
    <g id="Page-1" stroke="none" stroke-width="1" fill="none" fill-rule="evenodd">
        <g id="spaceship-graphic" transform="translate(0.000000, -1.000000)">
            <path d="M47.869501,29.816164 C47.869501,29.816164 47.0429492,38.2772471 46.7568352,39.6270697 C46.4707211,40.8781248 45.0719413,41.2731949 44.8811986,39.1332322 C44.6904559,36.9932695 44.5315036,29.355249 44.5315036,29.355249 L47.869501,29.816164 L47.869501,29.816164 Z" id="Shape" fill="#BFC6D3" transform="translate(46.200502, 35.003651) rotate(4.000000) translate(-46.200502, -35.003651) "></path>
            <path d="M10.6644586,23.8127466 C10.6644586,23.8127466 9.26567881,32.1750622 9.20209791,33.5907298 C9.17030746,34.8747074 10.410135,35.631925 11.109525,33.6565748 C11.8089149,31.6812247 13.9706655,24.3065842 13.9706655,24.3065842 L10.6644586,23.8127466 L10.6644586,23.8127466 Z" id="Shape" fill="#BFC6D3" transform="translate(11.586082, 29.338805) rotate(4.000000) translate(-11.586082, -29.338805) "></path>
            <path d="M82.0232234,28.7128171 C82.0232234,28.7128171 83.4220033,37.0751327 83.4855842,38.4908003 C83.5173746,39.7747778 82.277547,40.5319954 81.5781571,38.5566453 C80.8787672,36.5812951 78.7170165,29.2066546 78.7170165,29.2066546 L82.0232234,28.7128171 L82.0232234,28.7128171 Z" id="Shape" fill="#BFC6D3" transform="translate(81.101600, 34.238875) rotate(4.000000) translate(-81.101600, -34.238875) "></path>
            <path d="M92.7296214,27.0039866 L91.8076983,20.6170211 C82.7792102,18.049066 66.1528044,16.3041733 47.1421148,16.3041733 L46.8242102,16.3041733 L46.5063057,16.3041733 C27.4956161,16.3041733 10.8692102,18.049066 1.84072218,20.6170211 L0.918799101,27.0039866 C7.53121289,30.0328568 27.4956161,33.4238745 46.5063057,33.4238745 L46.8242102,33.4238745 L47.1421148,33.4238745 C66.1528044,33.4238745 86.0854171,30.0328568 92.7296214,27.0039866 L92.7296214,27.0039866 Z" id="Shape" fill="#DFE2E7" transform="translate(46.824210, 24.864024) rotate(4.000000) translate(-46.824210, -24.864024) "></path>
            <path d="M91.9994909,20.7599388 L91.9677004,20.6282488 C82.9392124,18.0273711 66.3128065,16.315401 47.3021169,16.315401 L47.1431646,16.315401 L46.9842124,16.315401 C27.9735227,16.315401 11.3471169,18.0602936 2.31862881,20.6282488 L2.28683836,20.7599388 C6.38780653,21.5171564 28.8000744,24.2168016 46.9842124,24.2168016 L47.1431646,24.2168016 L47.3021169,24.2168016 C65.4862548,24.2168016 87.8985227,21.5171564 91.9994909,20.7599388 L91.9994909,20.7599388 Z" id="Shape" fill="#BFC6D3" transform="translate(47.143165, 20.266101) rotate(4.000000) translate(-47.143165, -20.266101) "></path>
            <ellipse id="Oval" fill="#FFFFFF" transform="translate(46.272238, 28.686455) rotate(4.000000) translate(-46.272238, -28.686455) " cx="46.2722384" cy="28.6864549" rx="1.8120557" ry="1.87658263"></ellipse>
            <ellipse id="Oval" fill="#FFFFFF" transform="translate(58.894199, 29.114122) rotate(4.000000) translate(-58.894199, -29.114122) " cx="58.8941992" cy="29.1141221" rx="1.8120557" ry="1.87658263"></ellipse>
            <ellipse id="Oval" fill="#FFFFFF" transform="translate(71.235482, 28.993958) rotate(4.000000) translate(-71.235482, -28.993958) " cx="71.2354818" cy="28.9939583" rx="1.8120557" ry="1.87658263"></ellipse>
            <ellipse id="Oval" fill="#FFFFFF" transform="translate(83.090043, 28.080419) rotate(4.000000) translate(-83.090043, -28.080419) " cx="83.0900429" cy="28.0804195" rx="1.8120557" ry="1.87658263"></ellipse>
            <ellipse id="Oval" fill="#FFFFFF" transform="translate(34.697172, 27.408501) rotate(4.000000) translate(-34.697172, -27.408501) " cx="34.6971718" cy="27.4085009" rx="1.8120557" ry="1.87658263"></ellipse>
            <ellipse id="Oval" fill="#FFFFFF" transform="translate(22.492584, 25.558126) rotate(4.000000) translate(-22.492584, -25.558126) " cx="22.4925839" cy="25.5581265" rx="1.8120557" ry="1.87658263"></ellipse>
            <ellipse id="Oval" fill="#FFFFFF" transform="translate(10.879517, 22.990381) rotate(4.000000) translate(-10.879517, -22.990381) " cx="10.8795169" cy="22.990381" rx="1.8120557" ry="1.87658263"></ellipse>
            <path d="M69.8479928,20.2864715 C68.9578602,9.98172822 59.4843058,1.84987015 47.8807912,1.84987015 L47.721839,1.84987015 L47.5628867,1.84987015 C35.9593721,1.84987015 26.4540273,9.98172822 25.5956851,20.2864715 C31.7948231,21.372914 39.3927408,21.9984416 47.5628867,21.9984416 L47.721839,21.9984416 L47.8807912,21.9984416 C56.0827276,21.9655191 63.6488549,21.3399915 69.8479928,20.2864715 L69.8479928,20.2864715 Z" id="Shape" fill="#DFE2E7" transform="translate(47.721839, 11.924156) rotate(4.000000) translate(-47.721839, -11.924156) "></path>
            <path d="M55.585374,8.39888559 L55.5580842,8.39888559 L55.5580842,8.39888559 C53.7296724,8.51193163 50.864251,8.56845465 48.4627549,8.56845465 L48.2171473,8.56845465 L48.2171473,8.56845465 L48.1898576,8.56845465 L48.1898576,8.56845465 L47.7805116,8.56845465 L47.7259322,8.56845465 L47.7259322,8.56845465 L47.6167733,8.56845465 L47.5076144,8.56845465 L47.5076144,8.56845465 L47.4530349,8.56845465 L47.043689,8.56845465 L47.043689,8.56845465 L47.0163992,8.56845465 L47.0163992,8.56845465 L46.7707917,8.56845465 C44.3420059,8.56845465 41.4765844,8.54019314 39.6754623,8.39888559 L39.6754623,8.39888559 L39.6481726,8.39888559 C37.7106018,10.3489298 36.2096668,14.8707714 35.9094798,18.0360605 C36.8373305,18.1491066 37.9562094,18.2621526 39.1569575,18.3751986 C41.312846,18.6012907 43.6051832,18.7143368 46.0066793,18.7425983 L46.7980814,18.7425983 L46.8253711,18.7425983 L46.8526609,18.7425983 L47.5076144,18.7425983 L47.5621938,18.7425983 L47.5621938,18.7425983 L47.6713527,18.7425983 L47.7805116,18.7425983 L47.7805116,18.7425983 L47.8350911,18.7425983 L48.4900446,18.7425983 L48.5173343,18.7425983 L48.544624,18.7425983 L49.3360262,18.7425983 C51.7375223,18.7143368 54.0298595,18.6012907 56.185748,18.3751986 C57.386496,18.2621526 58.5053749,18.1491066 59.4332257,18.0360605 C59.0238798,14.8707714 57.5229447,10.3489298 55.585374,8.39888559 L55.585374,8.39888559 Z" id="Shape" fill="#BFC6D3" transform="translate(47.671353, 13.570742) rotate(4.000000) translate(-47.671353, -13.570742) "></path>
        </g>
    </g>
</svg>